<svg fill="none" height="104" viewBox="0 0 104 104" width="104" xmlns="http://www.w3.org/2000/svg"><rect fill="#eff6fc" height="104" rx="12" width="104"/><path d="m54.2002 14.9658h-4c-1.7 0-3 1.3-3 3v46.2h10v-46.2c0-1.6-1.4-3-3-3z" fill="#75b5f5"/><g stroke-width="4"><path d="m17 69.9658h70.3" stroke="#111f2d" stroke-linecap="round"/><path d="m41.2998 80.2656h21.7" stroke="#111f2d" stroke-linecap="round"/><path d="m22 20.8662h60.3c2.8 0 5 2.2 5 5v35c0 2.8-2.2 5-5 5h-60.3c-2.8 0-5-2.2-5-5v-35c0-2.8 2.2-5 5-5z" fill="#086fd6" stroke="#fff"/><path d="m36.7002 86.9656 10-16.7" stroke="#111f2d" stroke-linecap="round"/><path d="m67.7001 86.9656-10.1-16.7" stroke="#111f2d" stroke-linecap="round"/></g><path d="m18 46.766h38.2c.6 0 1-.4 1-1v-28.1c0-.6-.4-1-1-1h-38.2c-.6 0-1 .4-1 1v28.1c0 .6.4 1 1 1z" fill="#fff"/><path d="m17.8 46.7654h29c.7 0 1.1-.9.6-1.4l-16.4-17.2c-.3-.3-.9-.3-1.2 0l-12.6 13.1c-.1.2-.2.4-.2.6v4.1c0 .5.4.8.8.8z" fill="#75b5f5"/><path d="m57 42.1658-7.2-7.6c-.3-.3-.9-.3-1.2 0l-10.4 10.8c-.5.5-.1 1.4.6 1.4h17.5c.5 0 .8-.4.8-.8v-3.2c.1-.2 0-.4-.1-.6z" fill="#75b5f5"/><path d="m41.3001 30.8658c2.3196 0 4.2-1.8804 4.2-4.2s-1.8804-4.2-4.2-4.2-4.2 1.8804-4.2 4.2 1.8804 4.2 4.2 4.2z" fill="#75b5f5"/><path d="m18 46.766h38.2c.6 0 1-.4 1-1v-28.1c0-.6-.4-1-1-1h-38.2c-.6 0-1 .4-1 1v28.1c0 .6.4 1 1 1z" stroke="#111f2d" stroke-linecap="round" stroke-width="4"/></svg>