<?xml version="1.0" standalone="no"?>
<!DOCTYPE svg PUBLIC "-//W3C//DTD SVG 20010904//EN"
 "http://www.w3.org/TR/2001/REC-SVG-20010904/DTD/svg10.dtd">
<svg version="1.0" xmlns="http://www.w3.org/2000/svg"
 width="512.000000pt" height="512.000000pt" viewBox="0 0 512.000000 512.000000"
 preserveAspectRatio="xMidYMid meet">

<g transform="translate(0.000000,512.000000) scale(0.100000,-0.100000)"
fill="#000000" stroke="none">
<path d="M475 5105 c-242 -53 -412 -223 -460 -460 -14 -72 -15 -282 -13 -2120
l3 -2040 29 -84 c72 -205 242 -350 460 -390 41 -8 380 -11 1063 -11 l1003 0 0
2560 0 2560 -1012 -1 c-800 0 -1026 -3 -1073 -14z m1612 -640 c111 -33 208
-129 243 -244 18 -57 20 -92 20 -381 0 -289 -2 -324 -20 -381 -24 -77 -78
-151 -144 -196 -93 -64 -92 -64 -717 -61 l-564 3 -53 28 c-76 40 -134 97 -173
169 l-34 63 0 375 0 375 28 53 c50 96 127 163 225 198 58 21 1119 20 1189 -1z
m-46 -1695 c117 -22 218 -99 271 -208 l33 -67 3 -764 c3 -742 2 -767 -17 -831
-25 -78 -78 -151 -145 -197 -93 -64 -92 -64 -717 -61 l-564 3 -63 34 c-72 39
-129 97 -169 173 l-28 53 0 800 0 800 28 57 c50 103 142 177 252 204 64 16
1035 19 1116 4z"/>
</g>
</svg>
